<svg xmlns="http://www.w3.org/2000/svg" viewBox="0 0 48 48" height="48" width="48">
<path xmlns="http://www.w3.org/2000/svg" d="M7084.8,4980.1c-513.5-178.2-845-498.2-1009.8-969.6l-63.2-182l9.6,191.6c5.7,105.4,17.2,216.5,23,247.2l13.4,55.6l-122.6-84.3c-182-126.5-532.7-481-645.7-657.2c-164.8-252.9-295.1-626.6-323.8-917.8c-5.7-70.9-17.2-134.1-26.8-138c-21.1-15.3-59.4,243.3-63.2,433c0,93.9-3.8,170.5-5.8,170.5c-1.9,0-59.4-70.9-126.5-157.1c-185.9-239.5-327.7-467.5-454.1-728.1c-197.4-408.1-297-770.3-323.8-1182.3l-13.4-203.1l-36.4,115c-28.7,90.1-38.3,170.5-38.3,367.9c0,291.3,3.8,291.3-145.6,28.7c-170.5-297-297-680.2-344.9-1046.2c-13.4-101.6-19.2-320-13.4-532.7c3.8-197.4,5.7-360.2,1.9-360.2c-9.6,0-95.8,182-118.8,249.1c-11.5,38.3-28.7,120.7-36.4,182l-15.3,115l-59.4-143.7c-97.7-231.9-126.5-421.6-115-735.8c7.7-199.3,23-320,57.5-461.8c26.8-105.4,46-193.5,42.2-197.4c-13.4-13.4-134.1,182-174.4,281.7l-42.1,105.4l-15.3-74.7c-21.1-111.1,24.9-421.6,111.1-753c93.9-362.2,101.6-410.1,76.6-477.1c-136-369.8-390.9-1117.1-463.7-1360.5c-191.6-630.4-245.3-917.8-178.2-938.9c30.6-11.5,69,67.1,151.4,312.3c320,961.9,841.2,2328.1,1262.7,3322.6c569.1,1341.3,1316.4,2807.2,2228.5,4378.4c162.9,281.7,429.2,680.2,454.1,680.2c3.8,0-103.5-195.4-233.8-435C5456,1937.2,4595.7,218.4,4149.2-827.8c-297-697.5-670.7-1638.3-655.3-1653.6c15.3-15.3,352.6,118.8,599.8,237.6c228,109.2,272.1,139.9,400.5,268.3c78.6,78.6,139.9,147.5,136,153.3c-5.7,3.8-65.1-3.8-132.2-19.2c-67.1-15.3-187.8-32.6-266.3-40.2l-143.7-9.6l67.1,32.6c36.4,17.2,162.9,76.7,279.8,132.2c431.1,205,766.5,530.8,983,961.9l40.3,80.5l-93.9-57.5c-126.5-78.6-293.2-134.1-442.6-147.5l-124.6-11.5l128.4,69c166.7,88.1,316.2,205,498.2,389c251,256.8,433,517.4,626.6,902.5c74.7,153.3,231.9,511.6,231.9,534.6c0,3.8-59.4-19.2-130.3-49.8c-132.2-55.6-356.4-105.4-419.6-92c-24.9,5.7-3.8,23,70.9,61.3c480.9,247.2,841.2,741.6,1130.5,1554c19.2,53.7,40.2,113.1,49.8,132.2c13.4,36.4,11.5,36.4-51.7-1.9c-93.9-57.5-346.8-139.9-433.1-139.9h-72.8l122.7,72.8c243.3,141.8,515.4,492.5,653.4,835.4c70.9,176.3,134.1,413.9,134.1,504v65.1l-72.8-59.4c-67.1-53.6-243.4-134.1-293.2-134.1c-11.5,0,38.3,67.1,109.2,147.5c229.9,262.5,366,526.9,458,881.4c61.3,233.8,61.3,260.6,5.7,245.3c-93.9-28.7-266.3-132.2-398.6-241.4c-76.6-61.3-143.7-113.1-147.5-113.1c-9.6,0,118.8,201.2,180.1,283.6c26.8,34.5,44.1,67.1,40.2,70.9S7153.8,5005,7084.8,4980.1z"/>
</svg>